<svg width="27" height="21" viewBox="0 0 27 21" fill="none" xmlns="http://www.w3.org/2000/svg">
<path d="M13.7495 0C13.4112 0 13.1179 0.109462 12.8703 0.328386L6.36696 6.07898H1.25053C0.91148 6.07898 0.618955 6.18845 0.371373 6.40737C0.123791 6.6263 0 6.88566 0 7.18476V13.8152C0 14.1143 0.123791 14.3737 0.371373 14.5926C0.618955 14.8116 0.912269 14.921 1.25053 14.921H6.36696L12.8703 20.6716C13.1179 20.8905 13.4104 21 13.7495 21C14.0885 21 14.381 20.8905 14.6286 20.6716C14.8762 20.4527 15 20.194 15 19.8942V1.10578C15 0.806673 14.8762 0.547311 14.6294 0.328386C14.3826 0.109462 14.0893 0 13.7503 0H13.7495Z" fill="#B3B3B3"/>
<path d="M21.0299 12.9605C21.5564 12.2038 21.8196 11.3862 21.8196 10.507C21.8196 9.62779 21.5564 8.80739 21.0299 8.04439C20.5034 7.28139 19.8074 6.74379 18.9396 6.43159C18.8159 6.37419 18.6606 6.34479 18.4754 6.34479C18.1536 6.34479 17.8746 6.45189 17.6391 6.66539C17.4036 6.88029 17.2859 7.14209 17.2859 7.45429C17.2859 7.69719 17.3601 7.90229 17.5094 8.06959C17.6586 8.23689 17.8371 8.38179 18.0479 8.50289C18.2579 8.62399 18.4686 8.75699 18.6794 8.90189C18.8901 9.04679 19.0694 9.25119 19.2179 9.51719C19.3664 9.78319 19.4406 10.1129 19.4406 10.5056C19.4406 10.8983 19.3664 11.228 19.2179 11.494C19.0694 11.76 18.8901 11.9651 18.6794 12.1093C18.4686 12.2535 18.2579 12.3872 18.0479 12.5083C17.8371 12.6294 17.6579 12.7743 17.5094 12.9416C17.3609 13.1089 17.2859 13.3147 17.2859 13.5569C17.2859 13.8691 17.4044 14.1316 17.6391 14.3458C17.8746 14.5586 18.1529 14.6671 18.4754 14.6671C18.6606 14.6671 18.8159 14.6384 18.9396 14.5803C19.8066 14.2562 20.5034 13.7158 21.0299 12.9584V12.9605Z" fill="#B3B3B3"/>
<path d="M25.4058 15.4846C26.4686 13.9624 27 12.2999 27 10.4993C27 8.69931 26.4686 7.03826 25.4058 5.51397C24.3431 3.99181 22.9366 2.88207 21.1873 2.1883C21.0253 2.12989 20.8625 2.09998 20.6998 2.09998C20.3751 2.09998 20.0935 2.2118 19.8558 2.43546C19.6181 2.65912 19.5 2.92338 19.5 3.22966C19.5 3.68838 19.7437 4.03526 20.2312 4.27103C20.9307 4.61221 21.406 4.87077 21.6558 5.04742C22.5808 5.68278 23.303 6.47912 23.8215 7.43785C24.34 8.39659 24.5997 9.41659 24.5997 10.5C24.5997 11.5819 24.34 12.6026 23.8215 13.5621C23.303 14.5208 22.5808 15.3172 21.6558 15.9525C21.406 16.1292 20.9307 16.3877 20.2312 16.7289C19.7437 16.9647 19.5 17.3109 19.5 17.7703C19.5 18.0759 19.6188 18.3408 19.8558 18.5645C20.0927 18.7881 20.3804 18.9 20.718 18.9C20.8678 18.9 21.0245 18.8701 21.1865 18.8117C22.9359 18.1172 24.3431 17.0089 25.4051 15.4853L25.4058 15.4846Z" fill="#B3B3B3"/>
</svg>
